# xmcd
#
# Track frame offsets: 
#        150
#        25575
#        46875
#        66000
#        87975
#        134100
#        153150
#
# Disc length: 2436 seconds
#
# Revision: 0
# Processed by: cddbd v1.5PL3 Copyright (c) Steve Scherf et al.
# Submitted via: ExactAudioCopy v0.95a5
#
DISCID=53098207
DTITLE=Albert Collins and The Icebreakers - The Bayou
DYEAR=1979
DGENRE=Blues
TTITLE0=Back At The Shack
TTITLE1=Next Time You See Me
TTITLE2=Good Golly Miss Molly
TTITLE3=Goin' To New York
TTITLE4=Mister Magic
TTITLE5=Ice Pick
TTITLE6=Honey Hush
EXTD=
EXTT0=
EXTT1=
EXTT2=
EXTT3=
EXTT4=
EXTT5=
EXTT6=
PLAYORDER=
